<?xml version="1.0" encoding="UTF-8" standalone="no"?>
<!-- Created with Inkscape (http://www.inkscape.org/) -->

<svg
   width="512"
   height="512"
   viewBox="0 0 512 512"
   version="1.1"
   id="svg1"
   xmlns:xlink="http://www.w3.org/1999/xlink"
   xmlns="http://www.w3.org/2000/svg"
   xmlns:svg="http://www.w3.org/2000/svg">
  <defs
     id="defs1">
    <linearGradient
       xlink:href="#linearGradient8"
       id="linearGradient9"
       x1="99.617203"
       y1="111.8379"
       x2="71.472565"
       y2="94.062355"
       gradientUnits="userSpaceOnUse"
       gradientTransform="matrix(4.3708816,0,0,4.3708816,-94.507064,-136.33438)" />
    <linearGradient
       id="linearGradient8">
      <stop
         style="stop-color:#ff7f2a;stop-opacity:1;"
         offset="0"
         id="stop8" />
      <stop
         style="stop-color:#686fa8;stop-opacity:1;"
         offset="1"
         id="stop9" />
    </linearGradient>
    <linearGradient
       xlink:href="#linearGradient10"
       id="linearGradient11"
       x1="66.438194"
       y1="81.482986"
       x2="71.472565"
       y2="94.062355"
       gradientUnits="userSpaceOnUse"
       gradientTransform="matrix(4.3708816,0,0,4.3708816,-94.507064,-136.33438)" />
    <linearGradient
       id="linearGradient10">
      <stop
         style="stop-color:#22107d;stop-opacity:1;"
         offset="0"
         id="stop10" />
      <stop
         style="stop-color:#875423;stop-opacity:1;"
         offset="0.9972204"
         id="stop11" />
    </linearGradient>
  </defs>
  <g
     id="layer1">
    <circle
       style="fill:#ff8b41;fill-opacity:0;stroke:#2c1b09;stroke-width:13.4979;stroke-linecap:butt;stroke-linejoin:round;stroke-dasharray:none;stroke-opacity:1;paint-order:stroke fill markers"
       id="path13"
       cx="259.97577"
       cy="255.37727"
       r="134.81038" />
    <path
       id="path1"
       style="fill:url(#linearGradient9);fill-opacity:1;stroke:url(#linearGradient11);stroke-width:11.6353;stroke-dasharray:none"
       d="m 241.7276,150.43893 a 105.2118,105.2118 0 0 0 -85.34556,103.32041 105.2118,105.2118 0 0 0 105.21323,105.21098 105.2118,105.2118 0 0 0 93.3391,-56.65988 120.58891,115.73298 0 0 1 -119.23754,-115.72529 120.58891,115.73298 0 0 1 6.03077,-36.14622 z" />
    <path
       style="fill:#ffeb93;fill-opacity:1;stroke:#995a1d;stroke-width:3.79116;stroke-dasharray:none;stroke-opacity:1"
       id="path4-1-9"
       d="m 96.284287,65.547381 -5.71211,-5.895015 -7.989885,-1.881793 5.895015,-5.71211 1.881793,-7.989885 5.71211,5.895015 7.98988,1.881793 -5.89501,5.71211 z"
       transform="matrix(2.7890805,-0.43120445,0.40883778,2.9416651,35.795568,95.636159)" />
  </g>
</svg>
